<svg width="83" height="61" viewBox="0 0 83 61" fill="none" xmlns="http://www.w3.org/2000/svg">
<g filter="url(#filter0_d_39_990)">
<path d="M68.8576 19.3125H60.6722L58.3972 13.625C56.0593 7.77754 50.4798 4 44.1812 4H26.8179C20.5206 4 14.9398 7.77754 12.6005 13.625L10.3255 19.3125H2.14154C1.07377 19.3125 0.290369 20.316 0.550134 21.351L1.37045 24.6322C1.55228 25.3623 2.20853 25.875 2.96185 25.875H5.7058C3.86967 27.4787 2.68705 29.8098 2.68705 32.4375V39C2.68705 41.2039 3.52924 43.1932 4.87455 44.7326V52.125C4.87455 54.5408 6.83373 56.5 9.24955 56.5H13.6245C16.0404 56.5 17.9995 54.5408 17.9995 52.125V47.75H52.9995V52.125C52.9995 54.5408 54.9587 56.5 57.3745 56.5H61.7495C64.1654 56.5 66.1245 54.5408 66.1245 52.125V44.7326C67.4699 43.1945 68.312 41.2053 68.312 39V32.4375C68.312 29.8098 67.1294 27.4787 65.2947 25.875H68.0386C68.7919 25.875 69.4482 25.3623 69.63 24.6322L70.4503 21.351C70.7087 20.316 69.9253 19.3125 68.8576 19.3125ZM20.7244 16.8748C21.721 14.3838 24.1341 12.75 26.8179 12.75H44.1812C46.865 12.75 49.2781 14.3838 50.2747 16.8748L52.9995 23.6875H17.9995L20.7244 16.8748ZM13.6245 38.9727C10.9995 38.9727 9.24955 37.2281 9.24955 34.6113C9.24955 31.9945 10.9995 30.25 13.6245 30.25C16.2495 30.25 20.187 34.1752 20.187 36.792C20.187 39.4088 16.2495 38.9727 13.6245 38.9727ZM57.3745 38.9727C54.7495 38.9727 50.812 39.4088 50.812 36.792C50.812 34.1752 54.7495 30.25 57.3745 30.25C59.9995 30.25 61.7495 31.9945 61.7495 34.6113C61.7495 37.2281 59.9995 38.9727 57.3745 38.9727Z" fill="#DB7559"/>
</g>
<defs>
<filter id="filter0_d_39_990" x="0.500046" y="0" width="81.9999" height="60.5" filterUnits="userSpaceOnUse" color-interpolation-filters="sRGB">
<feFlood flood-opacity="0" result="BackgroundImageFix"/>
<feColorMatrix in="SourceAlpha" type="matrix" values="0 0 0 0 0 0 0 0 0 0 0 0 0 0 0 0 0 0 127 0" result="hardAlpha"/>
<feOffset dx="8"/>
<feGaussianBlur stdDeviation="2"/>
<feComposite in2="hardAlpha" operator="out"/>
<feColorMatrix type="matrix" values="0 0 0 0 0 0 0 0 0 0 0 0 0 0 0 0 0 0 0.25 0"/>
<feBlend mode="normal" in2="BackgroundImageFix" result="effect1_dropShadow_39_990"/>
<feBlend mode="normal" in="SourceGraphic" in2="effect1_dropShadow_39_990" result="shape"/>
</filter>
</defs>
</svg>
