<svg width="35" height="35" viewBox="0 0 35 35" fill="none" xmlns="http://www.w3.org/2000/svg">
<path d="M34.3369 11.5573C34.6035 11.2747 35 11.5391 35 11.9857V30.625C35 33.0404 33.5303 35 31.7188 35H3.28125C1.46973 35 0 33.0404 0 30.625V11.9948C0 11.5391 0.389648 11.2839 0.663086 11.5664C2.19434 13.1523 4.22461 15.1667 11.1973 21.9206C12.6396 23.3242 15.0732 26.2773 17.5 26.2591C19.9404 26.2865 22.4219 23.2695 23.8096 21.9206C30.7822 15.1667 32.8057 13.1432 34.3369 11.5573ZM17.5 23.3333C19.0859 23.3698 21.3691 20.6719 22.5176 19.5599C31.5889 10.7826 32.2793 10.0169 34.3711 7.82943C34.7676 7.41927 35 6.78125 35 6.10677V4.375C35 1.95964 33.5303 0 31.7188 0H3.28125C1.46973 0 0 1.95964 0 4.375V6.10677C0 6.78125 0.232422 7.41016 0.628906 7.82943C2.7207 10.0078 3.41113 10.7826 12.4824 19.5599C13.6309 20.6719 15.9141 23.3698 17.5 23.3333Z" fill="#3D4677"/>
</svg>
