<svg width="21" height="13" viewBox="0 0 21 13" fill="none" xmlns="http://www.w3.org/2000/svg">
<path d="M20.3792 6.00573C18.4962 2.42362 14.7684 0 10.5 0C6.23159 0 2.50276 2.42531 0.620815 6.00607C0.541385 6.15926 0.5 6.32851 0.5 6.50017C0.5 6.67183 0.541385 6.84108 0.620815 6.99427C2.5038 10.5764 6.23159 13 10.5 13C14.7684 13 18.4972 10.5747 20.3792 6.99393C20.4586 6.84074 20.5 6.67149 20.5 6.49983C20.5 6.32818 20.4586 6.15892 20.3792 6.00573ZM10.5 11.375C9.51109 11.375 8.54439 11.0891 7.72214 10.5534C6.8999 10.0177 6.25903 9.25637 5.88059 8.36558C5.50215 7.47479 5.40314 6.49459 5.59606 5.54893C5.78899 4.60328 6.2652 3.73464 6.96446 3.05285C7.66372 2.37107 8.55464 1.90677 9.52455 1.71867C10.4945 1.53057 11.4998 1.62711 12.4134 1.99609C13.3271 2.36506 14.1079 2.98991 14.6574 3.79159C15.2068 4.59328 15.5 5.53582 15.5 6.5C15.5003 7.14028 15.3712 7.77435 15.1201 8.36595C14.8689 8.95755 14.5006 9.49509 14.0363 9.94784C13.5719 10.4006 13.0206 10.7597 12.4138 11.0045C11.807 11.2494 11.1567 11.3753 10.5 11.375ZM10.5 3.25C10.2025 3.25405 9.90687 3.29721 9.62118 3.37831C9.85667 3.69033 9.96968 4.07431 9.93971 4.46061C9.90973 4.8469 9.73877 5.20993 9.45781 5.48387C9.17685 5.7578 8.80451 5.92449 8.40831 5.95372C8.01211 5.98294 7.61828 5.87276 7.29826 5.64315C7.11602 6.29775 7.14892 6.99159 7.39231 7.62701C7.63571 8.26242 8.07735 8.80742 8.65507 9.1853C9.23279 9.56317 9.9175 9.7549 10.6128 9.73348C11.3082 9.71206 11.9791 9.47859 12.5312 9.06591C13.0833 8.65324 13.4888 8.08215 13.6906 7.43302C13.8923 6.78389 13.8803 6.08941 13.656 5.44733C13.4318 4.80525 13.0066 4.2479 12.4405 3.85372C11.8744 3.45955 11.1957 3.2484 10.5 3.25Z" fill="#3D4677"/>
</svg>
