<svg width="49" height="49" viewBox="0 0 49 49" fill="none" xmlns="http://www.w3.org/2000/svg">
<path d="M43.4062 0.4375H5.59375C4.22623 0.4375 2.91472 0.980746 1.94773 1.94773C0.980746 2.91472 0.4375 4.22623 0.4375 5.59375L0.4375 43.4062C0.4375 44.7738 0.980746 46.0853 1.94773 47.0523C2.91472 48.0193 4.22623 48.5625 5.59375 48.5625H20.3374V32.2011H13.5698V24.5H20.3374V18.6305C20.3374 11.9542 24.312 8.26641 30.3996 8.26641C33.315 8.26641 36.3637 8.78633 36.3637 8.78633V15.3391H33.0046C29.6949 15.3391 28.6626 17.393 28.6626 19.4995V24.5H36.0511L34.8694 32.2011H28.6626V48.5625H43.4062C44.7738 48.5625 46.0853 48.0193 47.0523 47.0523C48.0193 46.0853 48.5625 44.7738 48.5625 43.4062V5.59375C48.5625 4.22623 48.0193 2.91472 47.0523 1.94773C46.0853 0.980746 44.7738 0.4375 43.4062 0.4375Z" fill="#3D4677"/>
</svg>
