<svg width="49" height="49" viewBox="0 0 49 49" fill="none" xmlns="http://www.w3.org/2000/svg">
<path d="M24.5107 12.1465C17.6787 12.1465 12.168 17.6572 12.168 24.4893C12.168 31.3213 17.6787 36.832 24.5107 36.832C31.3428 36.832 36.8535 31.3213 36.8535 24.4893C36.8535 17.6572 31.3428 12.1465 24.5107 12.1465ZM24.5107 32.5137C20.0957 32.5137 16.4863 28.915 16.4863 24.4893C16.4863 20.0635 20.085 16.4648 24.5107 16.4648C28.9365 16.4648 32.5352 20.0635 32.5352 24.4893C32.5352 28.915 28.9258 32.5137 24.5107 32.5137ZM40.2373 11.6416C40.2373 13.2422 38.9482 14.5205 37.3584 14.5205C35.7578 14.5205 34.4795 13.2314 34.4795 11.6416C34.4795 10.0518 35.7686 8.76269 37.3584 8.76269C38.9482 8.76269 40.2373 10.0518 40.2373 11.6416ZM48.4121 14.5635C48.2295 10.707 47.3486 7.29102 44.5234 4.47656C41.709 1.66211 38.293 0.78125 34.4365 0.587891C30.4619 0.362305 18.5488 0.362305 14.5742 0.587891C10.7285 0.770508 7.3125 1.65137 4.4873 4.46582C1.66211 7.28027 0.791992 10.6963 0.598633 14.5527C0.373047 18.5273 0.373047 30.4404 0.598633 34.415C0.78125 38.2715 1.66211 41.6875 4.4873 44.502C7.3125 47.3164 10.7178 48.1973 14.5742 48.3906C18.5488 48.6162 30.4619 48.6162 34.4365 48.3906C38.293 48.208 41.709 47.3271 44.5234 44.502C47.3379 41.6875 48.2188 38.2715 48.4121 34.415C48.6377 30.4404 48.6377 18.5381 48.4121 14.5635ZM43.2773 38.6797C42.4395 40.7852 40.8174 42.4072 38.7012 43.2559C35.5322 44.5127 28.0127 44.2227 24.5107 44.2227C21.0088 44.2227 13.4785 44.502 10.3203 43.2559C8.21484 42.418 6.59277 40.7959 5.74414 38.6797C4.48731 35.5107 4.77734 27.9912 4.77734 24.4893C4.77734 20.9873 4.49805 13.457 5.74414 10.2988C6.58203 8.19336 8.2041 6.57129 10.3203 5.72266C13.4893 4.46582 21.0088 4.75586 24.5107 4.75586C28.0127 4.75586 35.543 4.47656 38.7012 5.72266C40.8066 6.56055 42.4287 8.18262 43.2773 10.2988C44.5342 13.4678 44.2441 20.9873 44.2441 24.4893C44.2441 27.9912 44.5342 35.5215 43.2773 38.6797Z" fill="#3D4677"/>
</svg>
