<svg width="49" height="49" viewBox="0 0 49 49" fill="none" xmlns="http://www.w3.org/2000/svg">
<path d="M45.125 0.4375H3.86426C1.97363 0.4375 0.4375 1.99512 0.4375 3.90723V45.0928C0.4375 47.0049 1.97363 48.5625 3.86426 48.5625H45.125C47.0156 48.5625 48.5625 47.0049 48.5625 45.0928V3.90723C48.5625 1.99512 47.0156 0.4375 45.125 0.4375ZM14.9824 41.6875H7.84961V18.7207H14.9932V41.6875H14.9824ZM11.416 15.584C9.12793 15.584 7.28027 13.7256 7.28027 11.4482C7.28027 9.1709 9.12793 7.3125 11.416 7.3125C13.6934 7.3125 15.5518 9.1709 15.5518 11.4482C15.5518 13.7363 13.7041 15.584 11.416 15.584ZM41.7197 41.6875H34.5869V30.5156C34.5869 27.8516 34.5332 24.4248 30.8809 24.4248C27.1641 24.4248 26.5947 27.3252 26.5947 30.3223V41.6875H19.4619V18.7207H26.3047V21.8574H26.4014C27.3574 20.0527 29.6885 18.1514 33.1582 18.1514C40.377 18.1514 41.7197 22.9102 41.7197 29.0977V41.6875Z" fill="#3D4677"/>
</svg>
