<svg width="35" height="35" viewBox="0 0 35 35" fill="none" xmlns="http://www.w3.org/2000/svg">
<path d="M31.25 0H3.75C2.75544 0 1.80161 0.395088 1.09835 1.09835C0.395088 1.80161 0 2.75544 0 3.75L0 31.25C0 32.2446 0.395088 33.1984 1.09835 33.9016C1.80161 34.6049 2.75544 35 3.75 35H31.25C32.2446 35 33.1984 34.6049 33.9016 33.9016C34.6049 33.1984 35 32.2446 35 31.25V3.75C35 2.75544 34.6049 1.80161 33.9016 1.09835C33.1984 0.395088 32.2446 0 31.25 0ZM29.9695 24.0133L28.7977 29.0914C28.7381 29.3496 28.5929 29.58 28.3856 29.745C28.1783 29.91 27.9212 29.9999 27.6562 30C15.1562 30 5 19.8664 5 7.34375C5.0093 7.08129 5.10259 6.82875 5.26615 6.62328C5.42971 6.41781 5.65491 6.27026 5.90859 6.20234L10.9867 5.03047C11.0733 5.01215 11.1615 5.00195 11.25 5C11.4766 5.01144 11.696 5.08333 11.8855 5.20821C12.0749 5.33309 12.2275 5.5064 12.3273 5.71016L14.6711 11.1789C14.7285 11.3264 14.7605 11.4825 14.7656 11.6406C14.7465 11.9875 14.5923 12.3132 14.3359 12.5477L11.3758 14.9695C13.1694 18.771 16.229 21.8306 20.0305 23.6242L22.4523 20.6641C22.6868 20.4077 23.0125 20.2535 23.3594 20.2344C23.5175 20.2395 23.6737 20.2714 23.8211 20.3289L29.2898 22.6727C29.4937 22.7724 29.6671 22.9249 29.792 23.1144C29.9169 23.3039 29.9887 23.5233 30 23.75C29.9984 23.8385 29.9882 23.9267 29.9695 24.0133Z" fill="#3D4677"/>
</svg>
